HIERARCHY
ROOT hip
{
	OFFSET 0.000000 0.000000 0.000000 
	CHANNELS 6 Xposition Yposition Zposition Xrotation Zrotation Yrotation
	JOINT abdomen
	{
		OFFSET 0.000000 3.402643 0.000000 
		CHANNELS 3 Xrotation Zrotation Yrotation
		JOINT chest
		{
			OFFSET 0.000000 8.438565 -0.680529 
			CHANNELS 3 Xrotation Zrotation Yrotation
			JOINT neck
			{
				OFFSET 0.000000 10.207942 -0.272212 
				CHANNELS 3 Xrotation Zrotation Yrotation
				JOINT head
				{
					OFFSET 0.000000 3.130431 0.000000 
					CHANNELS 3 Xrotation Zrotation Yrotation
					End Site
					{
						OFFSET 0.000000 3.130435 0.000000 
					}
				}
			}
			JOINT lCollar
			{
				OFFSET 3.470700 6.669187 -0.816635 
				CHANNELS 3 Yrotation Zrotation Xrotation
				JOINT lShldr
				{
					OFFSET 3.198488 0.000000 0.000000 
					CHANNELS 3 Zrotation Yrotation Xrotation
					JOINT lForeArm
					{
						OFFSET 10.139888 0.000000 0.000000 
						CHANNELS 3 Yrotation Zrotation Xrotation
						JOINT lHand
						{
							OFFSET 8.370511 0.000000 0.000000 
							CHANNELS 3 Zrotation Yrotation Xrotation
							End Site
							{
								OFFSET 4.083176 0.000000 0.000000 
							}
						}
					}
				}
			}
			JOINT rCollar
			{
				OFFSET -3.470700 6.669187 -0.816635 
				CHANNELS 3 Yrotation Zrotation Xrotation
				JOINT rShldr
				{
					OFFSET -3.198488 0.000000 0.000000 
					CHANNELS 3 Zrotation Yrotation Xrotation
					JOINT rForeArm
					{
						OFFSET -10.139888 0.000000 0.000000 
						CHANNELS 3 Yrotation Zrotation Xrotation
						JOINT rHand
						{
							OFFSET -8.370511 0.000000 0.000000 
							CHANNELS 3 Zrotation Yrotation Xrotation
							End Site
							{
								OFFSET -4.083176 0.000000 0.000000 
							}
						}
					}
				}
			}
		}
	}
	JOINT lThigh
	{
		OFFSET 5.308129 -1.633274 1.361059 
		CHANNELS 3 Xrotation Zrotation Yrotation
		JOINT lShin
		{
			OFFSET -2.041588 -20.007561 0.000000 
			CHANNELS 3 Xrotation Zrotation Yrotation
			JOINT lFoot
			{
				OFFSET 0.000000 -19.190928 -1.224953 
				CHANNELS 3 Xrotation Yrotation Zrotation
				End Site
				{
					OFFSET 0.000000 -2.449906 4.627600 
				}
			}
		}
	}
	JOINT rThigh
	{
		OFFSET -5.308129 -1.633274 1.361059 
		CHANNELS 3 Xrotation Zrotation Yrotation
		JOINT rShin
		{
			OFFSET 2.041588 -20.007561 0.000000 
			CHANNELS 3 Xrotation Zrotation Yrotation
			JOINT rFoot
			{
				OFFSET 0.000000 -19.190928 -1.224953 
				CHANNELS 3 Xrotation Yrotation Zrotation
				End Site
				{
					OFFSET 0.000000 -2.449906 4.627600 
				}
			}
		}
	}
}
MOTION
Frames: 8
Frame Time: 0.016667
2.439492 44.585781 0.513711 17.227699 -8.316380 -3.643460 -13.778500 0.964646 0.722134 16.202999 -3.447080 0.505936 -17.472200 -9.958210 4.353650 -0.174026 0.826631 1.307990 2.000000 -2.000000 0.000000 -96.003899 37.707298 79.603996 11.406400 -0.348863 0.027099 0.109319 0.118977 -83.562500 -2.000000 2.000000 0.000000 71.951698 -20.034100 131.343002 -80.029800 0.238520 0.134659 -0.192121 0.168587 141.223007 -33.384106 -0.794675 -5.930365 32.146069 1.845339 2.757643 -11.393452 2.210538 0.156091 -18.373112 4.975900 13.066135 76.645996 -0.636698 -4.195112 -17.217638 -9.983106 -4.634613 
2.409778 44.217991 0.575524 18.803801 -9.522590 -3.312830 -14.365500 1.381620 0.808728 16.367100 -3.925060 0.638848 -17.810499 -10.542700 5.231050 -0.252615 0.456645 1.666450 2.000000 -2.000000 0.000000 -95.750198 40.525501 70.425301 11.562600 -0.348789 0.027465 0.111972 0.120909 -82.390602 -2.000000 2.000000 0.000000 71.727402 -21.615601 130.970001 -80.098198 0.238359 0.134687 -0.193909 0.168832 140.578003 -36.079845 -0.414714 -8.126730 34.698406 1.793369 2.904495 -13.278795 2.621304 0.277539 -13.615205 5.229291 14.186098 62.079082 -1.895359 -3.695079 -19.540585 -12.825582 -5.903053 
2.279691 43.753860 0.516358 19.749399 -9.413440 -3.547220 -14.889600 1.378270 1.212450 16.297501 -4.129230 0.863793 -18.219200 -10.460800 5.911600 -0.369969 0.349709 1.986220 2.000000 -2.000000 0.000000 -93.875298 42.415699 64.522202 11.884900 -0.348633 0.028218 0.111549 0.120607 -82.576202 -2.000000 2.000000 0.000000 72.507401 -22.776100 129.932999 -80.947800 0.236360 0.135021 -0.194913 0.168961 140.216995 -38.062874 -0.532039 -8.288359 36.683285 1.717094 3.034964 -14.602420 2.252564 0.224397 -9.897480 4.373742 16.314041 48.029747 -2.907890 -3.022957 -19.256666 -9.376934 -4.070003 
2.107936 43.629627 0.441503 19.340900 -7.690550 -4.672350 -15.596800 0.863452 1.637820 15.350800 -3.647040 1.015600 -19.202499 -10.358400 6.856610 -1.083270 0.117375 2.461630 2.000000 -2.000000 0.000000 -91.756798 44.351601 62.363300 12.168100 -0.348492 0.028879 0.111816 0.120798 -82.459000 -2.000000 2.000000 0.000000 73.553497 -23.977501 130.087006 -82.324699 0.233109 0.135499 -0.192987 0.168708 140.910004 -37.660984 -1.080001 -5.984207 36.645538 1.693048 3.038028 -14.666056 1.702720 0.118607 -6.949406 2.371613 18.720776 36.507801 -3.490291 -2.375436 -19.072090 -4.076131 -1.546201 
1.858086 43.833591 0.257311 18.146799 -5.616270 -6.388700 -15.424300 0.263018 2.197770 14.874700 -3.051370 1.162390 -19.557600 -10.286000 7.661580 -1.181160 0.000853 2.852880 2.000000 -2.000000 0.000000 -88.616699 43.136299 66.537903 12.295100 -0.348428 0.029175 0.108160 0.118107 -84.080101 -2.000000 2.000000 0.000000 74.734901 -22.815800 130.401993 -83.389198 0.230589 0.135815 -0.189039 0.168115 142.335999 -35.723404 -1.684384 -3.780370 35.056252 1.732690 2.964940 -14.289570 1.784416 0.243657 -6.597443 0.968392 19.090624 30.635031 -3.708472 -2.014733 -18.347153 -0.375796 0.072829 
1.575039 44.230579 -0.016040 17.807100 -6.036550 -8.653950 -15.106200 0.301596 2.577110 14.923200 -3.129370 1.333460 -18.747801 -10.689200 8.601850 -0.576074 -0.175617 3.286850 2.000000 -2.000000 0.000000 -86.101601 39.943501 79.937202 12.929800 -0.348097 0.030653 0.085897 0.097660 -94.890602 -2.000000 2.000000 0.000000 75.360603 -19.644300 131.880997 -83.399002 0.230566 0.135818 -0.181701 0.166744 145.001999 -34.472511 -0.085642 -4.129045 33.353569 1.823686 2.829622 -13.871998 3.067081 0.811574 -8.871293 3.124076 17.052746 28.930691 -3.465906 -1.967218 -18.142965 -0.279434 0.006489 
1.300685 44.683262 -0.303876 18.639700 -6.990240 -10.798300 -15.839700 0.663275 2.462630 14.180800 -2.979540 1.338190 -17.717199 -11.653900 10.550500 -0.108729 -0.712414 4.251760 2.000000 -2.000000 0.000000 -85.024696 38.059399 101.427002 16.123199 -0.346186 0.038028 0.056101 0.049810 -115.125000 -2.000000 2.000000 0.000000 75.247398 -17.432199 134.733002 -83.506401 0.230311 0.135847 -0.174091 0.155176 147.794998 -34.159283 1.947174 -5.537450 31.169312 1.912717 2.662467 -13.215783 5.021147 1.531126 -12.281456 6.065508 14.462118 26.346004 -2.780922 -2.006841 -18.344566 -0.353727 -0.337250 
1.006151 45.157936 -0.529684 19.397200 -7.198710 -12.380800 -16.026300 0.648897 2.396570 14.483300 -3.088070 1.324020 -17.411200 -13.009000 13.190900 0.415843 -1.561880 5.421460 2.000000 -2.000000 0.000000 -83.128304 34.939301 119.183998 22.246300 -0.341388 0.051820 0.045250 0.014065 -131.893005 -2.000000 2.000000 0.000000 75.874496 -14.740400 136.768997 -83.965401 0.229222 0.135967 -0.167727 0.163130 150.158005 -33.627930 3.446038 -5.823636 28.674101 1.953951 2.506447 -12.057487 5.520075 1.745270 -15.965779 8.476287 12.498648 23.298838 -2.165086 -2.062572 -17.992931 1.220151 0.186687 
